<svg id="visual" viewBox="0 0 900 600" width="900" height="600" xmlns="http://www.w3.org/2000/svg" xmlns:xlink="http://www.w3.org/1999/xlink" version="1.1"><rect x="0" y="0" width="900" height="600" fill="#001220"></rect><defs><linearGradient id="grad1_0" x1="33.3%" y1="100%" x2="100%" y2="0%"><stop offset="20%" stop-color="#fbae3c" stop-opacity="1"></stop><stop offset="80%" stop-color="#fbae3c" stop-opacity="1"></stop></linearGradient></defs><defs><linearGradient id="grad1_1" x1="33.3%" y1="100%" x2="100%" y2="0%"><stop offset="20%" stop-color="#fbae3c" stop-opacity="1"></stop><stop offset="80%" stop-color="#e1685e" stop-opacity="1"></stop></linearGradient></defs><defs><linearGradient id="grad1_2" x1="33.3%" y1="100%" x2="100%" y2="0%"><stop offset="20%" stop-color="#96446e" stop-opacity="1"></stop><stop offset="80%" stop-color="#e1685e" stop-opacity="1"></stop></linearGradient></defs><defs><linearGradient id="grad1_3" x1="33.3%" y1="100%" x2="100%" y2="0%"><stop offset="20%" stop-color="#96446e" stop-opacity="1"></stop><stop offset="80%" stop-color="#3d3056" stop-opacity="1"></stop></linearGradient></defs><defs><linearGradient id="grad1_4" x1="33.3%" y1="100%" x2="100%" y2="0%"><stop offset="20%" stop-color="#001220" stop-opacity="1"></stop><stop offset="80%" stop-color="#3d3056" stop-opacity="1"></stop></linearGradient></defs><defs><linearGradient id="grad2_0" x1="0%" y1="100%" x2="66.7%" y2="0%"><stop offset="20%" stop-color="#fbae3c" stop-opacity="1"></stop><stop offset="80%" stop-color="#fbae3c" stop-opacity="1"></stop></linearGradient></defs><defs><linearGradient id="grad2_1" x1="0%" y1="100%" x2="66.7%" y2="0%"><stop offset="20%" stop-color="#e1685e" stop-opacity="1"></stop><stop offset="80%" stop-color="#fbae3c" stop-opacity="1"></stop></linearGradient></defs><defs><linearGradient id="grad2_2" x1="0%" y1="100%" x2="66.7%" y2="0%"><stop offset="20%" stop-color="#e1685e" stop-opacity="1"></stop><stop offset="80%" stop-color="#96446e" stop-opacity="1"></stop></linearGradient></defs><defs><linearGradient id="grad2_3" x1="0%" y1="100%" x2="66.7%" y2="0%"><stop offset="20%" stop-color="#3d3056" stop-opacity="1"></stop><stop offset="80%" stop-color="#96446e" stop-opacity="1"></stop></linearGradient></defs><defs><linearGradient id="grad2_4" x1="0%" y1="100%" x2="66.7%" y2="0%"><stop offset="20%" stop-color="#3d3056" stop-opacity="1"></stop><stop offset="80%" stop-color="#001220" stop-opacity="1"></stop></linearGradient></defs><g transform="translate(900, 600)"><path d="M-486.7 0C-489.9 -47.3 -493.1 -94.6 -462.7 -124C-432.3 -153.3 -368.3 -164.6 -349 -201.5C-329.7 -238.4 -355.2 -300.8 -344.2 -344.2C-333.1 -387.6 -285.6 -411.9 -239.5 -414.8C-193.4 -417.7 -148.9 -399.2 -109.2 -407.6C-69.6 -416 -34.8 -451.4 0 -486.7L0 0Z" fill="#18223c"></path><path d="M-389.4 0C-391.9 -37.9 -394.5 -75.7 -370.1 -99.2C-345.8 -122.6 -294.6 -131.7 -279.2 -161.2C-263.8 -190.7 -284.2 -240.6 -275.3 -275.3C-266.5 -310.1 -228.5 -329.5 -191.6 -331.9C-154.7 -334.2 -119.1 -319.4 -87.4 -326.1C-55.6 -332.8 -27.8 -361.1 0 -389.4L0 0Z" fill="#683a67"></path><path d="M-292 0C-294 -28.4 -295.9 -56.8 -277.6 -74.4C-259.4 -92 -221 -98.8 -209.4 -120.9C-197.8 -143 -213.1 -180.5 -206.5 -206.5C-199.9 -232.5 -171.3 -247.2 -143.7 -248.9C-116.1 -250.6 -89.3 -239.5 -65.5 -244.6C-41.7 -249.6 -20.9 -270.8 0 -292L0 0Z" fill="#c0526a"></path><path d="M-194.7 0C-196 -18.9 -197.2 -37.9 -185.1 -49.6C-172.9 -61.3 -147.3 -65.9 -139.6 -80.6C-131.9 -95.3 -142.1 -120.3 -137.7 -137.7C-133.3 -155 -114.2 -164.8 -95.8 -165.9C-77.4 -167.1 -59.6 -159.7 -43.7 -163C-27.8 -166.4 -13.9 -180.6 0 -194.7L0 0Z" fill="#f6884d"></path><path d="M-97.3 0C-98 -9.5 -98.6 -18.9 -92.5 -24.8C-86.5 -30.7 -73.7 -32.9 -69.8 -40.3C-65.9 -47.7 -71 -60.2 -68.8 -68.8C-66.6 -77.5 -57.1 -82.4 -47.9 -83C-38.7 -83.5 -29.8 -79.8 -21.8 -81.5C-13.9 -83.2 -7 -90.3 0 -97.3L0 0Z" fill="#fbae3c"></path></g><g transform="translate(0, 0)"><path d="M486.7 0C457.2 37.3 427.7 74.5 404.7 108.4C381.7 142.4 365.2 173 345.5 199.5C325.9 226 303.2 248.3 289.2 289.2C275.3 330.1 270.1 389.7 243.4 421.5C216.7 453.4 168.4 457.4 124.2 463.6C80.1 469.9 40 478.3 0 486.7L0 0Z" fill="#18223c"></path><path d="M389.4 0C365.8 29.8 342.2 59.6 323.8 86.8C305.4 113.9 292.1 138.4 276.4 159.6C260.7 180.8 242.5 198.6 231.4 231.4C220.2 264.1 216.1 311.8 194.7 337.2C173.3 362.7 134.7 365.9 99.4 370.9C64.1 375.9 32 382.7 0 389.4L0 0Z" fill="#683a67"></path><path d="M292 0C274.3 22.4 256.6 44.7 242.8 65.1C229 85.4 219.1 103.8 207.3 119.7C195.5 135.6 181.9 149 173.5 173.5C165.2 198.1 162.1 233.8 146 252.9C130 272 101 274.4 74.5 278.2C48 281.9 24 287 0 292L0 0Z" fill="#c0526a"></path><path d="M194.7 0C182.9 14.9 171.1 29.8 161.9 43.4C152.7 57 146.1 69.2 138.2 79.8C130.4 90.4 121.3 99.3 115.7 115.7C110.1 132.1 108 155.9 97.3 168.6C86.7 181.3 67.4 183 49.7 185.5C32 188 16 191.3 0 194.7L0 0Z" fill="#f6884d"></path><path d="M97.3 0C91.4 7.5 85.5 14.9 80.9 21.7C76.3 28.5 73 34.6 69.1 39.9C65.2 45.2 60.6 49.7 57.8 57.8C55.1 66 54 77.9 48.7 84.3C43.3 90.7 33.7 91.5 24.8 92.7C16 94 8 95.7 0 97.3L0 0Z" fill="#fbae3c"></path></g></svg>