<?xml version="1.0" encoding="UTF-8" standalone="no"?>
<svg
   viewBox="0 0 349.99999999999994 337.45296840253354"
   preserveAspectRatio="xMidYMid meet"
   class="css-ata32y"
   id="cfdchgfh"
   version="1.1"
   sodipodi:docname="logo.svg"
   xmlns:inkscape="http://www.inkscape.org/namespaces/inkscape"
   xmlns:sodipodi="http://sodipodi.sourceforge.net/DTD/sodipodi-0.dtd"
   xmlns="http://www.w3.org/2000/svg"
   xmlns:svg="http://www.w3.org/2000/svg">
  <sodipodi:namedview
     id="namedview84"
     pagecolor="#ffffff"
     bordercolor="#000000"
     borderopacity="0.25"
     inkscape:showpageshadow="2"
     inkscape:pageopacity="0.0"
     inkscape:pagecheckerboard="0"
     inkscape:deskcolor="#d1d1d1" />
  <defs
     id="SvgjsDefs1111">
    <lineargradient
       id="SvgjsLinearGradient1120">
      <stop
         id="SvgjsStop1121"
         stop-color="#8f5e25"
         offset="0" />
      <stop
         id="SvgjsStop1122"
         stop-color="#fbf4a1"
         offset="0.5" />
      <stop
         id="SvgjsStop1123"
         stop-color="#8f5e25"
         offset="1" />
    </lineargradient>
    <lineargradient
       id="SvgjsLinearGradient1124">
      <stop
         id="SvgjsStop1125"
         stop-color="#8f5e25"
         offset="0" />
      <stop
         id="SvgjsStop1126"
         stop-color="#fbf4a1"
         offset="0.5" />
      <stop
         id="SvgjsStop1127"
         stop-color="#8f5e25"
         offset="1" />
    </lineargradient>
    <lineargradient
       id="SvgjsLinearGradient1128">
      <stop
         id="SvgjsStop1129"
         stop-color="#8f5e25"
         offset="0" />
      <stop
         id="SvgjsStop1130"
         stop-color="#fbf4a1"
         offset="0.5" />
      <stop
         id="SvgjsStop1131"
         stop-color="#8f5e25"
         offset="1" />
    </lineargradient>
  </defs>
  <g
     id="SvgjsG1112"
     featurekey="symbolGroupContainer"
     transform="matrix(2.3099999999999996,0,0,2.3099999999999996,60,0)"
     fill="#111">
    <circle
       cx="50"
       cy="50"
       r="50"
       id="circle3" />
  </g>
  <g
     id="SvgjsG1113"
     featurekey="DUScZC-0"
     transform="matrix(2.4999999999999996,0,0,2.4999999999999996,106,36)"
     fill="#fff">
    <path
       d="M55,25H40.414l-3.707-3.707C36.52,21.105,36.265,21,36,21H21c-0.552,0-1,0.448-1,1v3h-7v-5c0-0.347-0.18-0.669-0.474-0.851  c-0.295-0.183-0.663-0.199-0.973-0.044L10,19.882l-1.553-0.776c-0.31-0.155-0.678-0.139-0.973,0.044C7.18,19.331,7,19.653,7,20v5H1  c-0.552,0-1,0.448-1,1v11c0,0.552,0.448,1,1,1h6v5c0,0.347,0.18,0.668,0.474,0.851c0.295,0.182,0.663,0.198,0.973,0.044L10,43.118  l1.553,0.776C11.694,43.965,11.847,44,12,44c0.183,0,0.365-0.05,0.526-0.149C12.82,43.668,13,43.347,13,43v-5h2v3.5  c0,0.289,0.125,0.562,0.341,0.752L19,45.454V64h2V45c0-0.289-0.125-0.562-0.341-0.752L17,41.046V38h3v1h2v-2v-7v-7h3v3h2v-3h3v3h2  v-3h3v3h2v-1.586l2,2v15.172l-1.707,1.707C37.105,43.48,37,43.735,37,44v20h2V44.414l1.707-1.707C40.895,42.52,41,42.265,41,42v-4  h14c0.552,0,1-0.448,1-1V26C56,25.448,55.552,25,55,25z M9,27h2v9H9V27z M9,21.618l0.553,0.276c0.281,0.141,0.613,0.141,0.895,0  L11,21.618V25H9V21.618z M2,27h5v9H2V27z M11,41.382l-0.553-0.276C10.307,41.035,10.153,41,10,41s-0.307,0.035-0.447,0.105L9,41.382  V38h2V41.382z M20,36h-4h-3v-9h7v3V36z M54,36H41v-9h13V36z"
       id="path6" />
    <path
       d="M15.869,22.358C17.784,17.359,22.659,14,28,14s10.216,3.359,12.131,8.358l1.867-0.716C39.789,15.875,34.164,12,28,12  s-11.789,3.875-13.998,9.642L15.869,22.358z"
       id="path8" />
    <rect
       x="54"
       y="42"
       width="2"
       height="7"
       id="rect10" />
    <rect
       x="54"
       y="51"
       width="2"
       height="2"
       id="rect12" />
    <rect
       x="54"
       y="55"
       width="2"
       height="2"
       id="rect14" />
    <rect
       x="54"
       y="59"
       width="2"
       height="2"
       id="rect16" />
    <rect
       x="50"
       y="40"
       width="2"
       height="7"
       id="rect18" />
    <rect
       x="50"
       y="49"
       width="2"
       height="2"
       id="rect20" />
    <rect
       x="50"
       y="53"
       width="2"
       height="2"
       id="rect22" />
    <rect
       x="50"
       y="57"
       width="2"
       height="2"
       id="rect24" />
    <rect
       x="46"
       y="40"
       width="2"
       height="12"
       id="rect26" />
    <rect
       x="46"
       y="54"
       width="2"
       height="2"
       id="rect28" />
    <rect
       x="46"
       y="58"
       width="2"
       height="2"
       id="rect30" />
    <rect
       x="46"
       y="62"
       width="2"
       height="2"
       id="rect32" />
    <rect
       x="8"
       y="49"
       width="2"
       height="5"
       id="rect34" />
    <rect
       x="8"
       y="56"
       width="2"
       height="2"
       id="rect36" />
    <rect
       x="8"
       y="60"
       width="2"
       height="2"
       id="rect38" />
    <rect
       x="4"
       y="47"
       width="2"
       height="9"
       id="rect40" />
    <rect
       x="4"
       y="58"
       width="2"
       height="2"
       id="rect42" />
    <rect
       x="4"
       y="62"
       width="2"
       height="2"
       id="rect44" />
    <rect
       y="40"
       width="2"
       height="7"
       id="rect46" />
    <rect
       y="49"
       width="2"
       height="2"
       id="rect48" />
    <rect
       y="53"
       width="2"
       height="2"
       id="rect50" />
    <rect
       y="57"
       width="2"
       height="2"
       id="rect52" />
    <rect
       x="9"
       width="2"
       height="4"
       id="rect54" />
    <rect
       x="9"
       y="10"
       width="2"
       height="4"
       id="rect56" />
    <rect
       x="13"
       y="6"
       width="4"
       height="2"
       id="rect58" />
    <rect
       x="3"
       y="6"
       width="4"
       height="2"
       id="rect60" />
    <rect
       x="9"
       y="6"
       width="2"
       height="2"
       id="rect62" />
    <rect
       x="47"
       y="5"
       width="2"
       height="4"
       id="rect64" />
    <rect
       x="47"
       y="15"
       width="2"
       height="4"
       id="rect66" />
    <rect
       x="51"
       y="11"
       width="4"
       height="2"
       id="rect68" />
    <rect
       x="41"
       y="11"
       width="4"
       height="2"
       id="rect70" />
    <rect
       x="47"
       y="11"
       width="2"
       height="2"
       id="rect72" />
    <polygon
       points="32,10 34,10 34,8 36,8 36,6 34,6 34,4 32,4 32,6 30,6 30,8 32,8 "
       id="polygon74" />
  </g>
  <g
     id="SvgjsG1114"
     featurekey="MdC7pD-0"
     transform="matrix(4.743833095565354,0,0,4.743833095565354,-3.7950668157576675,222.53700595067966)"
     fill="#111">
    <path
       d="M2.66 14.26 l-1.86 -1.86 l0 -4.54 l1.86 -1.86 l1.64 0 l0 2.52 l-0.6 0 l-0.38 0.38 l0 2.46 l0.38 0.38 l3.08 0 l1.86 1.86 l0 0.66 l-5.98 0 z M2.66 20 l-1.86 -1.86 l0 -2.62 l2.52 0 l0 1.58 l0.38 0.38 l2.04 0 l0.38 -0.38 l0 -2 l2.52 0 l0 3.04 l-1.86 1.86 l-4.12 0 z M6.12 10.48 l0 -1.58 l-0.38 -0.38 l-0.6 0 l0 -2.52 l1.64 0 l1.86 1.86 l0 2.62 l-2.52 0 z M12.899999999999999 20 l0 -10.64 l2.52 0 l0 10.64 l-2.52 0 z M10.24 8.52 l0 -2.52 l7.84 0 l0 2.52 l-7.84 0 z M24.16 20 l0 -2.52 l0.74 0 l0.38 -0.38 l0 -11.1 l2.52 0 l0 12.14 l-1.86 1.86 l-1.78 0 z M21.54 20 l-1.86 -1.86 l0 -12.14 l2.52 0 l0 11.1 l0.38 0.38 l0.74 0 l0 2.52 l-1.78 0 z M32.760000000000005 20 l0 -2.52 l1.86 0 l0.38 -0.38 l0 -8.2 l-0.38 -0.38 l-1.86 0 l0 -2.52 l2.9 0 l1.86 1.86 l0 10.28 l-1.86 1.86 l-2.9 0 z M29.400000000000002 20 l0 -14 l2.52 0 l0 14 l-2.52 0 z M41.9 20 l0 -5.2 l-3.18 -8.8 l2.68 0 l3.02 8.36 l0 5.64 l-2.52 0 z M44.94 13.32 l-1.34 -3.7 l1.3 -3.62 l2.68 0 z M52.14 15.1 l0 -2.52 l1.58 0 l0.38 -0.38 l0 -3.3 l-0.38 -0.38 l-1.58 0 l0 -2.52 l2.62 0 l1.86 1.86 l0 5.38 l-1.86 1.86 l-2.62 0 z M48.78 20 l0 -4.06 l2.52 0 l0 4.06 l-2.52 0 z M48.78 15.1 l0 -9.1 l2.52 0 l0 9.1 l-2.52 0 z M57.82 20 l1.14 -5.6 l4.28 0 l-0.86 -4.28 l-0.68 3.44 l-2.58 0 l1.52 -7.56 l3.48 0 l2.2 10.92 l-5.3 0 l-0.62 3.08 l-2.58 0 z M64.38 20 l-0.46 -2.24 l2.58 0 l0.44 2.24 l-2.56 0 z M68.14 16.64 l0 -10.64 l2.52 0 l0 10.64 l-2.52 0 z M68.14 20 l0 -2.52 l2.52 0 l0 2.52 l-2.52 0 z M71.5 20 l0 -2.52 l3.08 0 l0 2.52 l-3.08 0 z"
       id="path77" />
  </g>
  <g
     id="SvgjsG1115"
     featurekey="Pp8M4q-0"
     transform="matrix(0.6444305046715212,0,0,0.6444305046715212,34.30152791172626,324.0043042853423)"
     fill="#111">
    <path
       d="M15.244 7.715 l-1.1523 0.85938 q-0.9375 -1.23046875 -2.260742188 -1.860351563 t-2.9053 -0.62988 q-1.73828125 0 -3.212890625 0.830078125 t-2.29 2.2314 t-0.81543 3.1592 q0 2.646484375 1.81640625 4.262695313 t4.5801 1.6162 q3.046875 0 5.087890625 -2.3828125 l1.1523 0.86914 q-1.083984375 1.376953125 -2.705078125 2.12890625 t-3.6133 0.75195 q-3.80859375 0 -6.005859375 -2.529296875 q-1.8359375 -2.138671875 -1.8359375 -4.84375 q0 -3.173828125 2.231445313 -5.3515625 t5.5811 -2.1777 q2.03125 0 3.666992188 0.8056640625 t2.6807 2.2607 z M32.441396875 4.686999999999999 q3.28125 0 5.493164063 2.197265625 t2.2119 5.4102 q0 3.173828125 -2.20703125 5.21484375 t-5.3809 2.041 q-3.22265625 0 -5.439453125 -2.202148438 t-2.2168 -4.9854 q0 -2.080078125 1.005859375 -3.8671875 t2.7539 -2.7979 t3.7793 -1.0107 z M32.499996875 6.1129999999999995 q-1.6015625 0 -3.041992188 0.8349609375 t-2.2412 2.2559 t-0.80078 3.1592 q0 2.578125 1.782226563 4.1796875 t4.3018 1.6016 q1.6796875 0 3.115234375 -0.8203125 t2.2363 -2.2314 t0.80078 -2.7979 q0 -1.71875 -0.80078125 -3.115234375 t-2.2559 -2.2314 t-3.0957 -0.83496 z M50.429640625 4.901999999999999 l1.4551 0 l0 13.086 l5.5664 0 l0 1.3965 l-7.0215 0 l0 -14.482 z M67.128859375 4.901999999999999 l1.4551 0 l0 13.086 l5.5664 0 l0 1.3965 l-7.0215 0 l0 -14.482 z M89.755878125 4.901999999999999 l6.748 14.482 l-1.543 0 l-2.2754 -4.7754 l-6.25 0 l-2.2559 4.7754 l-1.6211 0 l6.8457 -14.482 l0.35156 0 z M89.580078125 7.968999999999999 l-2.5 5.2539 l4.9609 0 z M105.88863125 4.901999999999999 l4.5996 0 q1.71875 0 2.646484375 0.41015625 t1.46 1.2598 t0.53223 1.875 q0 0.966796875 -0.4736328125 1.7578125 t-1.3916 1.2793 q1.142578125 0.390625 1.748046875 0.9033203125 t0.94727 1.2451 t0.3418 1.5918 q0 1.748046875 -1.279296875 2.954101563 t-3.418 1.2061 l-5.7129 0 l0 -14.482 z M107.30473125 6.318 l0 4.6387 l2.5684 0 q1.50390625 0 2.211914063 -0.283203125 t1.123 -0.88379 t0.41504 -1.3428 q0 -0.99609375 -0.693359375 -1.5625 t-2.207 -0.56641 l-3.418 0 z M107.30473125 12.412099999999999 l0 5.5566 l3.5352 0 q1.58203125 0 2.319335938 -0.3125 t1.1865 -0.9668 t0.44922 -1.4355 q0 -0.95703125 -0.6298828125 -1.6796875 t-1.7334 -0.98633 q-0.7421875 -0.17578125 -2.568359375 -0.17578125 l-2.5586 0 z M127.44138125 16.5234 l1.3379 0.63477 l-2.002 3.7109 l-0.97656 -0.41016 z M152.04096875 4.901999999999999 l1.4551 0 l0 13.086 l5.5664 0 l0 1.3965 l-7.0215 0 l0 -14.482 z M168.7499875 4.941000000000001 l8.3008 0 l0 1.4258 l-6.8555 0 l0 4.5313 l4.1797 0 l0 1.4063 l-4.1797 0 l0 5.6836 l6.7969 0 l0 1.4355 l-8.2422 0 l0 -14.482 z M193.232440625 4.901999999999999 l6.748 14.482 l-1.543 0 l-2.2754 -4.7754 l-6.25 0 l-2.2559 4.7754 l-1.6211 0 l6.8457 -14.482 l0.35156 0 z M193.056640625 7.968999999999999 l-2.5 5.2539 l4.9609 0 z M209.69729375 4.941000000000001 l2.8809 0 q2.412109375 0 3.271484375 0.1953125 q1.2890625 0.29296875 2.099609375 1.264648438 t0.81055 2.3877 q0 1.19140625 -0.556640625 2.080078125 t-1.5967 1.3525 t-1.8018 0.46387 l4.1504 6.7383 l-1.7773 0 l-4.1504 -6.7383 l-1.8848 0 l0 6.7383 l-1.4453 0 l0 -14.482 z M211.14259375 6.356999999999999 l0 4.9219 l2.4902 0.019531 q1.4453125 0 2.143554688 -0.2734375 t1.084 -0.87891 t0.38574 -1.3574 q0 -0.72265625 -0.3955078125 -1.318359375 t-1.0303 -0.85449 t-2.1289 -0.25879 l-2.5488 0 z M229.248034375 19.42383 l0 -14.482 l0.3125 0 l9.6289 11.084 l0 -11.084 l1.4258 0 l0 14.482 l-0.33203 0 l-9.5313 -10.947 l0 10.947 l-1.5039 0 z M274.814828125 13.8281 l0.98633 1.0449 q-0.947265625 0.830078125 -1.69921875 1.455078125 q0.48828125 0.52734375 1.435546875 1.474609375 q0.751953125 0.751953125 1.2890625 1.38671875 l-2.0117 0 l-1.8652 -1.9434 q-1.865234375 1.416015625 -2.998046875 1.860351563 t-2.3926 0.44434 q-1.669921875 0 -2.685546875 -0.9619140625 t-1.0156 -2.3877 q0 -1.09375 0.68359375 -2.177734375 t2.793 -2.7441 q-1.19140625 -1.4453125 -1.533203125 -2.12890625 t-0.3418 -1.3086 q0 -1.07421875 0.83984375 -1.787109375 q0.966796875 -0.8203125 2.40234375 -0.8203125 q0.908203125 0 1.655273438 0.361328125 t1.1377 0.97656 t0.39063 1.3086 q0 0.72265625 -0.5078125 1.54296875 t-2.0117 2.0996 l2.1875 2.3047 l1.5039 1.5137 q1.09375 -0.908203125 1.7578125 -1.513671875 z M268.466828125 10.4492 q1.0546875 -0.8203125 1.58203125 -1.611328125 q0.37109375 -0.556640625 0.37109375 -0.99609375 q0 -0.498046875 -0.48828125 -0.8642578125 t-1.2891 -0.36621 q-0.76171875 0 -1.25 0.3759765625 t-0.48828 0.89355 q0 0.380859375 0.1953125 0.732421875 q0.48828125 0.83984375 1.3671875 1.8359375 z M268.291028125 12.363299999999999 q-1.845703125 1.38671875 -2.416992188 2.211914063 t-0.57129 1.5186 q0 0.830078125 0.703125 1.46484375 t1.709 0.63477 q0.771484375 0 1.513671875 -0.322265625 q1.15234375 -0.498046875 2.734375 -1.62109375 l-2.3535 -2.4316 q-0.595703125 -0.615234375 -1.318359375 -1.455078125 z M298.515624375 16.4941 l1.2305 -0.74219 q1.298828125 2.392578125 2.998046875 2.392578125 q0.732421875 0 1.376953125 -0.341796875 t0.97656 -0.9082 t0.33203 -1.2109 q0 -0.72265625 -0.48828125 -1.42578125 q-0.68359375 -0.966796875 -2.490234375 -1.97265625 q-1.81640625 -1.3671875 -2.24609375 -1.982421875 q-0.771484375 -1.015625 -0.771484375 -2.216796875 q0 -0.947265625 0.44921875 -1.71875 t1.2744 -1.2256 t1.792 -0.4541 q1.015625 0 1.904296875 0.5126953125 t1.8848 1.8701 l-1.1816 0.88867 q-0.810546875 -1.07421875 -1.38671875 -1.420898438 t-1.2598 -0.34668 q-0.869140625 0 -1.42578125 0.5322265625 t-0.55664 1.3037 q0 0.46875 0.1953125 0.91796875 t0.72266 0.95703 q0.283203125 0.283203125 1.875 1.455078125 q1.875 1.38671875 2.573242188 2.294921875 t0.69824 1.9922 q0 1.58203125 -1.196289063 2.744140625 t-2.9053 1.1621 q-1.328125 0 -2.40234375 -0.703125 t-1.9727 -2.3535 z M317.187525 4.707000000000001 l1.4453 0 l0 8.7402 q0 1.552734375 0.068359375 1.943359375 q0.107421875 0.859375 0.498046875 1.430664063 t1.2061 0.95703 t1.6455 0.38574 q0.712890625 0.185546875 1.962890625 -0.126953125 t1.6895 -0.93262 t0.64453 -1.4014 q0.15625 -0.546875 0.15625 -2.255859375 l0 -8.7402 l1.4453 0 l0 8.7402 q0 1.943359375 -0.380859375 3.139648438 t-1.5186 2.0801 t-3.9209 0.88379 q-1.7578125 0 -3.002929688 -0.83984375 t-1.665 -2.207 q-0.2734375 -0.859375 -0.2734375 -3.056640625 l0 -8.7402 z M352.187359375 7.715 l-1.1523 0.85938 q-0.9375 -1.23046875 -2.260742188 -1.860351563 t-2.9053 -0.62988 q-1.73828125 0 -3.212890625 0.830078125 t-2.29 2.2314 t-0.81543 3.1592 q0 2.646484375 1.81640625 4.262695313 t4.5801 1.6162 q3.046875 0 5.087890625 -2.3828125 l1.1523 0.86914 q-1.083984375 1.376953125 -2.705078125 2.12890625 t-3.6133 0.75195 q-3.80859375 0 -6.005859375 -2.529296875 q-1.8359375 -2.138671875 -1.8359375 -4.84375 q0 -3.173828125 2.231445313 -5.3515625 t5.5811 -2.1777 q2.03125 0 3.666992188 0.8056640625 t2.6807 2.2607 z M375.96665625 7.715 l-1.1523 0.85938 q-0.9375 -1.23046875 -2.260742188 -1.860351563 t-2.9053 -0.62988 q-1.73828125 0 -3.212890625 0.830078125 t-2.29 2.2314 t-0.81543 3.1592 q0 2.646484375 1.81640625 4.262695313 t4.5801 1.6162 q3.046875 0 5.087890625 -2.3828125 l1.1523 0.86914 q-1.083984375 1.376953125 -2.705078125 2.12890625 t-3.6133 0.75195 q-3.80859375 0 -6.005859375 -2.529296875 q-1.8359375 -2.138671875 -1.8359375 -4.84375 q0 -3.173828125 2.231445313 -5.3515625 t5.5811 -2.1777 q2.03125 0 3.666992188 0.8056640625 t2.6807 2.2607 z M386.259753125 4.941000000000001 l8.3008 0 l0 1.4258 l-6.8555 0 l0 4.5313 l4.1797 0 l0 1.4063 l-4.1797 0 l0 5.6836 l6.7969 0 l0 1.4355 l-8.2422 0 l0 -14.482 z M404.82420625 4.941000000000001 l8.3008 0 l0 1.4258 l-6.8555 0 l0 4.5313 l4.1797 0 l0 1.4063 l-4.1797 0 l0 5.6836 l6.7969 0 l0 1.4355 l-8.2422 0 l0 -14.482 z M423.378859375 19.38477 l0 -14.482 l2.998 0 q3.251953125 0 4.7265625 0.52734375 q2.099609375 0.732421875 3.286132813 2.553710938 t1.1865 4.3408 q0 2.16796875 -0.9423828125 3.828125 t-2.4414 2.4463 t-4.2041 0.78613 l-4.6094 0 z M424.765659375 18.0078 l1.6699 0 q2.998046875 0 4.169921875 -0.37109375 q1.630859375 -0.52734375 2.568359375 -1.909179688 t0.9375 -3.3838 q0 -2.099609375 -1.010742188 -3.583984375 t-2.8271 -2.0313 q-1.3671875 -0.419921875 -4.482421875 -0.419921875 l-1.0254 0 l0 11.699 z"
       id="path80" />
  </g>
</svg>
